<svg width="34" height="34" viewBox="0 0 34 34" fill="none" xmlns="http://www.w3.org/2000/svg">
<path d="M3.1875 17C3.1875 24.6281 9.37191 30.8125 17 30.8125C24.6281 30.8125 30.8125 24.6281 30.8125 17C30.8125 9.37191 24.6281 3.1875 17 3.1875C9.37191 3.1875 3.1875 9.37191 3.1875 17ZM17.3088 10.9331C17.4079 11.0314 17.4866 11.1482 17.5405 11.2769C17.5945 11.4056 17.6225 11.5437 17.6231 11.6833C17.6236 11.8228 17.5967 11.9611 17.5438 12.0903C17.4909 12.2194 17.4131 12.3368 17.3148 12.4359L13.8404 15.9375H22.7109C22.9927 15.9375 23.263 16.0494 23.4622 16.2487C23.6615 16.448 23.7734 16.7182 23.7734 17C23.7734 17.2818 23.6615 17.552 23.4622 17.7513C23.263 17.9506 22.9927 18.0625 22.7109 18.0625H13.8404L17.3148 21.5641C17.413 21.6633 17.4908 21.7808 17.5437 21.91C17.5965 22.0392 17.6234 22.1776 17.6228 22.3172C17.6222 22.4568 17.5941 22.5949 17.5401 22.7237C17.4861 22.8524 17.4073 22.9693 17.3081 23.0675C17.209 23.1658 17.0914 23.2436 16.9622 23.2965C16.833 23.3493 16.6946 23.3762 16.555 23.3756C16.4154 23.375 16.2773 23.3469 16.1486 23.2929C16.0198 23.2389 15.903 23.1601 15.8047 23.0609L10.5327 17.7484C10.3352 17.5494 10.2244 17.2804 10.2244 17C10.2244 16.7196 10.3352 16.4506 10.5327 16.2516L15.8047 10.9391C15.903 10.8398 16.0199 10.7609 16.1487 10.7069C16.2776 10.6528 16.4158 10.6247 16.5555 10.6242C16.6952 10.6236 16.8337 10.6506 16.9629 10.7036C17.0922 10.7566 17.2097 10.8346 17.3088 10.9331Z" fill="white"/>
</svg>
